{
  "accessors": [
    {
      "bufferView": 2,
      "componentType": 5126,
      "count": 41479,
      "max": [
        1459.63818359375,
        1317.859619140625,
        411.9040222167969
      ],
      "min": [
        -840.2677001953125,
        363.2204895019531,
        -469.932861328125
      ],
      "type": "VEC3"
    },
    {
      "bufferView": 2,
      "byteOffset": 497748,
      "componentType": 5126,
      "count": 41479,
      "max": [
        0.9999982714653015,
        0.9999974370002747,
        1.0
      ],
      "min": [
        -0.9999982714653015,
        -1.0,
        -1.0
      ],
      "type": "VEC3"
    },
    {
      "bufferView": 1,
      "componentType": 5126,
      "count": 41479,
      "max": [
        2.7793824672698975,
        1.4307525157928467
      ],
      "min": [
        -1.7793829441070557,
        -0.43411022424697876
      ],
      "type": "VEC2"
    },
    {
      "bufferView": 1,
      "byteOffset": 331832,
      "componentType": 5126,
      "count": 41479,
      "max": [
        1.3767271041870117,
        4.439197063446045
      ],
      "min": [
        -0.3891623020172119,
        -2.6328487396240234
      ],
      "type": "VEC2"
    },
    {
      "bufferView": 0,
      "componentType": 5125,
      "count": 216528,
      "type": "SCALAR"
    },
    {
      "bufferView": 2,
      "byteOffset": 995496,
      "componentType": 5126,
      "count": 8547,
      "max": [
        1443.094970703125,
        1203.21142578125,
        389.0639343261719
      ],
      "min": [
        -823.724609375,
        379.7697448730469,
        359.75238037109375
      ],
      "type": "VEC3"
    },
    {
      "bufferView": 2,
      "byteOffset": 1098060,
      "componentType": 5126,
      "count": 8547,
      "max": [
        0.9999951720237732,
        0.9999225735664368,
        1.0
      ],
      "min": [
        -0.9999952912330627,
        -0.9999999403953552,
        0.0004113453614991158
      ],
      "type": "VEC3"
    },
    {
      "bufferView": 1,
      "byteOffset": 663664,
      "componentType": 5126,
      "count": 8547,
      "max": [
        0.9862913489341736,
        0.3781466782093048
      ],
      "min": [
        0.007685776799917221,
        0.0061439573764801025
      ],
      "type": "VEC2"
    },
    {
      "bufferView": 1,
      "byteOffset": 732040,
      "componentType": 5126,
      "count": 8547,
      "max": [
        2.7658119201660156,
        1.335944414138794
      ],
      "min": [
        -1.7658123970031738,
        -0.4205363988876343
      ],
      "type": "VEC2"
    },
    {
      "bufferView": 0,
      "byteOffset": 866112,
      "componentType": 5125,
      "count": 43038,
      "type": "SCALAR"
    },
    {
      "bufferView": 2,
      "byteOffset": 1200624,
      "componentType": 5126,
      "count": 4,
      "max": [
        40.25157165527344,
        29.140460968017578,
        0.0
      ],
      "min": [
        -40.25157165527344,
        -29.140460968017578,
        0.0
      ],
      "type": "VEC3"
    },
    {
      "bufferView": 2,
      "byteOffset": 1200672,
      "componentType": 5126,
      "count": 4,
      "max": [
        0.0,
        0.0,
        1.0
      ],
      "min": [
        0.0,
        0.0,
        1.0
      ],
      "type": "VEC3"
    },
    {
      "bufferView": 1,
      "byteOffset": 800416,
      "componentType": 5126,
      "count": 4,
      "max": [
        0.9825624823570251,
        0.3826879560947418
      ],
      "min": [
        0.38247695565223694,
        0.014586061239242554
      ],
      "type": "VEC2"
    },
    {
      "bufferView": 1,
      "byteOffset": 800448,
      "componentType": 5126,
      "count": 4,
      "max": [
        0.9825624823570251,
        0.3826879560947418
      ],
      "min": [
        0.38247695565223694,
        0.014586061239242554
      ],
      "type": "VEC2"
    },
    {
      "bufferView": 0,
      "byteOffset": 1038264,
      "componentType": 5125,
      "count": 6,
      "type": "SCALAR"
    }
  ],
  "asset": {
    "extras": {
      "author": "3D SHARE 2 (https://sketchfab.com/nganngan)",
      "license": "CC-BY-4.0 (http://creativecommons.org/licenses/by/4.0/)",
      "source": "https://sketchfab.com/3d-models/trescani-sofa-4f756b99f9714b1996b9de5b1595905e",
      "title": "Trescani Sofa"
    },
    "generator": "Sketchfab-12.68.0",
    "version": "2.0"
  },
  "bufferViews": [
    {
      "buffer": 0,
      "byteLength": 1038288,
      "name": "floatBufferViews",
      "target": 34963
    },
    {
      "buffer": 0,
      "byteLength": 800480,
      "byteOffset": 1038288,
      "byteStride": 8,
      "name": "floatBufferViews",
      "target": 34962
    },
    {
      "buffer": 0,
      "byteLength": 1200720,
      "byteOffset": 1838768,
      "byteStride": 12,
      "name": "floatBufferViews",
      "target": 34962
    }
  ],
  "buffers": [
    {
      "byteLength": 3039488,
      "uri": "scene.bin"
    }
  ],
  "images": [
    {
      "uri": "textures/Material_33_baseColor.jpeg"
    },
    {
      "uri": "textures/3DSHARE_STUDIO_baseColor.png"
    }
  ],
  "materials": [
    {
      "doubleSided": true,
      "name": "skinn_01",
      "pbrMetallicRoughness": {
        "baseColorFactor": [
          0.941177,
          0.905882,
          0.835294,
          1.0
        ],
        "metallicFactor": 0.0,
        "roughnessFactor": 0.6
      }
    },
    {
      "doubleSided": true,
      "name": "Material_33",
      "pbrMetallicRoughness": {
        "baseColorTexture": {
          "index": 0
        },
        "metallicFactor": 0.0,
        "roughnessFactor": 0.1
      }
    },
    {
      "alphaMode": "BLEND",
      "doubleSided": true,
      "name": "3DSHARE_STUDIO",
      "pbrMetallicRoughness": {
        "baseColorFactor": [
          1.0,
          1.0,
          1.0,
          0.84
        ],
        "baseColorTexture": {
          "index": 1
        },
        "metallicFactor": 0.0,
        "roughnessFactor": 0.6
      }
    }
  ],
  "meshes": [
    {
      "name": "Tricani Sofa_skinn_01_0",
      "primitives": [
        {
          "attributes": {
            "NORMAL": 1,
            "POSITION": 0,
            "TEXCOORD_0": 2,
            "TEXCOORD_1": 3
          },
          "indices": 4,
          "material": 0,
          "mode": 4
        }
      ]
    },
    {
      "name": "Wood_Material #33_0",
      "primitives": [
        {
          "attributes": {
            "NORMAL": 6,
            "POSITION": 5,
            "TEXCOORD_0": 7,
            "TEXCOORD_1": 8
          },
          "indices": 9,
          "material": 1,
          "mode": 4
        }
      ]
    },
    {
      "name": "Plane001_3DSHARE STUDIO_0",
      "primitives": [
        {
          "attributes": {
            "NORMAL": 11,
            "POSITION": 10,
            "TEXCOORD_0": 12,
            "TEXCOORD_1": 13
          },
          "indices": 14,
          "material": 2,
          "mode": 4
        }
      ]
    }
  ],
  "nodes": [
    {
      "children": [
        1
      ],
      "matrix": [
        0.014229128137230873,
        0.0,
        0.0,
        0.0,
        0.0,
        3.159501135659076e-18,
        -0.014229128137230873,
        0.0,
        0.0,
        0.014229128137230873,
        3.159501135659076e-18,
        0.0,
        0.0,
        0.0,
        0.0,
        1.0
      ],
      "name": "Sketchfab_model"
    },
    {
      "children": [
        2
      ],
      "matrix": [
        1.0,
        0.0,
        0.0,
        0.0,
        0.0,
        0.0,
        1.0,
        0.0,
        0.0,
        -1.0,
        0.0,
        0.0,
        0.0,
        0.0,
        0.0,
        1.0
      ],
      "name": "Trescani.FBX"
    },
    {
      "children": [
        3,
        6,
        9
      ],
      "name": "RootNode"
    },
    {
      "children": [
        4
      ],
      "matrix": [
        0.10000000149011612,
        0.0,
        0.0,
        0.0,
        0.0,
        0.10000000149011541,
        1.192092913271378e-08,
        0.0,
        0.0,
        -1.192092913271378e-08,
        0.10000000149011541,
        0.0,
        3.0425796508789063,
        46.114906311035156,
        26.389904022216797,
        1.0
      ],
      "name": "Tricani Sofa"
    },
    {
      "children": [
        5
      ],
      "matrix": [
        1.0,
        0.0,
        -0.0,
        0.0,
        0.0,
        1.0,
        0.0,
        0.0,
        0.0,
        0.0,
        1.0,
        0.0,
        -309.685302734375,
        -824.36962890625,
        29.0144100189209,
        1.0
      ],
      "name": "Object_4"
    },
    {
      "mesh": 0,
      "name": "Tricani Sofa_skinn_01_0"
    },
    {
      "children": [
        7
      ],
      "matrix": [
        0.10000000149011612,
        0.0,
        0.0,
        0.0,
        0.0,
        0.10000000149011541,
        1.1920930020892212e-08,
        0.0,
        0.0,
        -1.1920930020892212e-08,
        0.10000000149011541,
        0.0,
        3.0425796508789063,
        46.114906311035156,
        26.389904022216797,
        1.0
      ],
      "name": "Wood"
    },
    {
      "children": [
        8
      ],
      "matrix": [
        1.0,
        0.0,
        -0.0,
        0.0,
        0.0,
        1.0,
        0.0,
        0.0,
        0.0,
        0.0,
        1.0,
        0.0,
        -309.685302734375,
        -824.36962890625,
        29.0144100189209,
        1.0
      ],
      "name": "Object_7"
    },
    {
      "mesh": 1,
      "name": "Wood_Material #33_0"
    },
    {
      "children": [
        10
      ],
      "matrix": [
        3.962526798248291,
        0.0,
        0.0,
        0.0,
        0.0,
        5.432623154738787e-16,
        -2.4466359615325928,
        0.0,
        0.0,
        5.431221008300781,
        1.2059733230486772e-15,
        0.0,
        2.7437286376953125,
        -0.0001817337906686589,
        25.675521850585938,
        1.0
      ],
      "name": "Plane001"
    },
    {
      "mesh": 2,
      "name": "Plane001_3DSHARE STUDIO_0"
    }
  ],
  "samplers": [
    {
      "magFilter": 9729,
      "minFilter": 9987,
      "wrapS": 10497,
      "wrapT": 10497
    }
  ],
  "scene": 0,
  "scenes": [
    {
      "name": "Sketchfab_Scene",
      "nodes": [
        0
      ]
    }
  ],
  "textures": [
    {
      "sampler": 0,
      "source": 0
    },
    {
      "sampler": 0,
      "source": 1
    }
  ]
}
