{
  "accessors": [
    {
      "bufferView": 2,
      "componentType": 5126,
      "count": 13204,
      "max": [
        -0.23560485243797302,
        0.26998013257980347,
        0.2780209481716156
      ],
      "min": [
        -1.0,
        -0.26998013257980347,
        -0.4862782955169678
      ],
      "type": "VEC3"
    },
    {
      "bufferView": 2,
      "byteOffset": 158448,
      "componentType": 5126,
      "count": 13204,
      "max": [
        1.0,
        1.0,
        1.0
      ],
      "min": [
        -1.0,
        -1.0,
        -1.0
      ],
      "type": "VEC3"
    },
    {
      "bufferView": 3,
      "componentType": 5126,
      "count": 13204,
      "max": [
        1.0,
        1.0,
        0.9999998807907104,
        1.0
      ],
      "min": [
        -1.0,
        -1.0,
        -1.0,
        -1.0
      ],
      "type": "VEC4"
    },
    {
      "bufferView": 1,
      "componentType": 5126,
      "count": 13204,
      "max": [
        0.9941635131835938,
        0.9999030828475952
      ],
      "min": [
        0.0015890327049419284,
        0.0003783702850341797
      ],
      "type": "VEC2"
    },
    {
      "bufferView": 1,
      "byteOffset": 105632,
      "componentType": 5126,
      "count": 13204,
      "max": [
        0.9941635131835938,
        0.9999030828475952
      ],
      "min": [
        0.0015890327049419284,
        0.0003783702850341797
      ],
      "type": "VEC2"
    },
    {
      "bufferView": 1,
      "byteOffset": 211264,
      "componentType": 5126,
      "count": 13204,
      "max": [
        0.9941635131835938,
        0.9999030828475952
      ],
      "min": [
        0.0015890327049419284,
        0.0003783702850341797
      ],
      "type": "VEC2"
    },
    {
      "bufferView": 1,
      "byteOffset": 316896,
      "componentType": 5126,
      "count": 13204,
      "max": [
        0.9941635131835938,
        0.9999030828475952
      ],
      "min": [
        0.0015890327049419284,
        0.0003783702850341797
      ],
      "type": "VEC2"
    },
    {
      "bufferView": 1,
      "byteOffset": 422528,
      "componentType": 5126,
      "count": 13204,
      "max": [
        0.9941635131835938,
        0.9999030828475952
      ],
      "min": [
        0.0015890327049419284,
        0.0003783702850341797
      ],
      "type": "VEC2"
    },
    {
      "bufferView": 0,
      "componentType": 5125,
      "count": 72204,
      "type": "SCALAR"
    },
    {
      "bufferView": 2,
      "byteOffset": 316896,
      "componentType": 5126,
      "count": 13205,
      "max": [
        1.0,
        0.2699801027774811,
        0.2780208885669708
      ],
      "min": [
        0.235604926943779,
        -0.26998013257980347,
        -0.4862782955169678
      ],
      "type": "VEC3"
    },
    {
      "bufferView": 2,
      "byteOffset": 475356,
      "componentType": 5126,
      "count": 13205,
      "max": [
        1.0,
        1.0,
        1.0
      ],
      "min": [
        -1.0,
        -1.0,
        -1.0
      ],
      "type": "VEC3"
    },
    {
      "bufferView": 3,
      "byteOffset": 211264,
      "componentType": 5126,
      "count": 13205,
      "max": [
        1.0,
        1.0,
        0.9999999403953552,
        1.0
      ],
      "min": [
        -1.0,
        -1.0,
        -1.0,
        -1.0
      ],
      "type": "VEC4"
    },
    {
      "bufferView": 1,
      "byteOffset": 528160,
      "componentType": 5126,
      "count": 13205,
      "max": [
        0.9941635131835938,
        0.9999030828475952
      ],
      "min": [
        0.0015890327049419284,
        0.0003783702850341797
      ],
      "type": "VEC2"
    },
    {
      "bufferView": 1,
      "byteOffset": 633800,
      "componentType": 5126,
      "count": 13205,
      "max": [
        0.9941635131835938,
        0.9999030828475952
      ],
      "min": [
        0.0015890327049419284,
        0.0003783702850341797
      ],
      "type": "VEC2"
    },
    {
      "bufferView": 1,
      "byteOffset": 739440,
      "componentType": 5126,
      "count": 13205,
      "max": [
        0.9941635131835938,
        0.9999030828475952
      ],
      "min": [
        0.0015890327049419284,
        0.0003783702850341797
      ],
      "type": "VEC2"
    },
    {
      "bufferView": 1,
      "byteOffset": 845080,
      "componentType": 5126,
      "count": 13205,
      "max": [
        0.9941635131835938,
        0.9999030828475952
      ],
      "min": [
        0.0015890327049419284,
        0.0003783702850341797
      ],
      "type": "VEC2"
    },
    {
      "bufferView": 1,
      "byteOffset": 950720,
      "componentType": 5126,
      "count": 13205,
      "max": [
        0.9941635131835938,
        0.9999030828475952
      ],
      "min": [
        0.0015890327049419284,
        0.0003783702850341797
      ],
      "type": "VEC2"
    },
    {
      "bufferView": 0,
      "byteOffset": 288816,
      "componentType": 5125,
      "count": 72204,
      "type": "SCALAR"
    },
    {
      "bufferView": 2,
      "byteOffset": 633816,
      "componentType": 5126,
      "count": 754,
      "max": [
        0.23382599651813507,
        -0.046980854123830795,
        0.4862782955169678
      ],
      "min": [
        -0.23287402093410492,
        -0.26998013257980347,
        0.01957830600440502
      ],
      "type": "VEC3"
    },
    {
      "bufferView": 2,
      "byteOffset": 642864,
      "componentType": 5126,
      "count": 754,
      "max": [
        1.0,
        1.0,
        1.0
      ],
      "min": [
        -1.0,
        -1.0,
        -1.0
      ],
      "type": "VEC3"
    },
    {
      "bufferView": 3,
      "byteOffset": 422544,
      "componentType": 5126,
      "count": 754,
      "max": [
        1.0,
        0.062260840088129044,
        1.0,
        -1.0
      ],
      "min": [
        -1.0,
        -0.06225356459617615,
        -1.0,
        -1.0
      ],
      "type": "VEC4"
    },
    {
      "bufferView": 1,
      "byteOffset": 1056360,
      "componentType": 5126,
      "count": 754,
      "max": [
        0.9394498467445374,
        0.9994999766349792
      ],
      "min": [
        0.0005000000237487257,
        0.0004999637603759766
      ],
      "type": "VEC2"
    },
    {
      "bufferView": 1,
      "byteOffset": 1062392,
      "componentType": 5126,
      "count": 754,
      "max": [
        0.9394498467445374,
        0.9994999766349792
      ],
      "min": [
        0.0005000000237487257,
        0.0004999637603759766
      ],
      "type": "VEC2"
    },
    {
      "bufferView": 1,
      "byteOffset": 1068424,
      "componentType": 5126,
      "count": 754,
      "max": [
        0.9394498467445374,
        0.9994999766349792
      ],
      "min": [
        0.0005000000237487257,
        0.0004999637603759766
      ],
      "type": "VEC2"
    },
    {
      "bufferView": 1,
      "byteOffset": 1074456,
      "componentType": 5126,
      "count": 754,
      "max": [
        0.9394498467445374,
        0.9994999766349792
      ],
      "min": [
        0.0005000000237487257,
        0.0004999637603759766
      ],
      "type": "VEC2"
    },
    {
      "bufferView": 1,
      "byteOffset": 1080488,
      "componentType": 5126,
      "count": 754,
      "max": [
        0.9394498467445374,
        0.9994999766349792
      ],
      "min": [
        0.0005000000237487257,
        0.0004999637603759766
      ],
      "type": "VEC2"
    },
    {
      "bufferView": 0,
      "byteOffset": 577632,
      "componentType": 5125,
      "count": 3600,
      "type": "SCALAR"
    }
  ],
  "asset": {
    "extras": {
      "author": "DailyArt (https://sketchfab.com/D.art)",
      "license": "CC-BY-NC-4.0 (http://creativecommons.org/licenses/by-nc/4.0/)",
      "source": "https://sketchfab.com/3d-models/sofa-pink-4485be72470a4078b1eb4c276887dbc7",
      "title": "Sofa (pink)"
    },
    "generator": "Sketchfab-12.66.0",
    "version": "2.0"
  },
  "bufferViews": [
    {
      "buffer": 0,
      "byteLength": 592032,
      "name": "floatBufferViews",
      "target": 34963
    },
    {
      "buffer": 0,
      "byteLength": 1086520,
      "byteOffset": 592032,
      "byteStride": 8,
      "name": "floatBufferViews",
      "target": 34962
    },
    {
      "buffer": 0,
      "byteLength": 651912,
      "byteOffset": 1678552,
      "byteStride": 12,
      "name": "floatBufferViews",
      "target": 34962
    },
    {
      "buffer": 0,
      "byteLength": 434608,
      "byteOffset": 2330464,
      "byteStride": 16,
      "name": "floatBufferViews",
      "target": 34962
    }
  ],
  "buffers": [
    {
      "byteLength": 2765072,
      "uri": "scene.bin"
    }
  ],
  "images": [
    {
      "uri": "textures/shafa_baseColor.png"
    },
    {
      "uri": "textures/shafa_metallicRoughness.png"
    },
    {
      "uri": "textures/shafa_normal.png"
    },
    {
      "uri": "textures/chaji_baseColor.png"
    },
    {
      "uri": "textures/chaji_metallicRoughness.png"
    },
    {
      "uri": "textures/chaji_normal.png"
    }
  ],
  "materials": [
    {
      "name": "shafa",
      "normalTexture": {
        "index": 2
      },
      "occlusionTexture": {
        "index": 1
      },
      "pbrMetallicRoughness": {
        "baseColorTexture": {
          "index": 0
        },
        "metallicRoughnessTexture": {
          "index": 1
        }
      }
    },
    {
      "name": "chaji",
      "normalTexture": {
        "index": 5
      },
      "occlusionTexture": {
        "index": 4
      },
      "pbrMetallicRoughness": {
        "baseColorTexture": {
          "index": 3
        },
        "metallicRoughnessTexture": {
          "index": 4
        }
      }
    }
  ],
  "meshes": [
    {
      "name": "Object_0",
      "primitives": [
        {
          "attributes": {
            "NORMAL": 1,
            "POSITION": 0,
            "TANGENT": 2,
            "TEXCOORD_0": 3,
            "TEXCOORD_1": 4,
            "TEXCOORD_2": 5,
            "TEXCOORD_3": 6,
            "TEXCOORD_4": 7
          },
          "indices": 8,
          "material": 0,
          "mode": 4
        }
      ]
    },
    {
      "name": "Object_1",
      "primitives": [
        {
          "attributes": {
            "NORMAL": 10,
            "POSITION": 9,
            "TANGENT": 11,
            "TEXCOORD_0": 12,
            "TEXCOORD_1": 13,
            "TEXCOORD_2": 14,
            "TEXCOORD_3": 15,
            "TEXCOORD_4": 16
          },
          "indices": 17,
          "material": 0,
          "mode": 4
        }
      ]
    },
    {
      "name": "Object_2",
      "primitives": [
        {
          "attributes": {
            "NORMAL": 19,
            "POSITION": 18,
            "TANGENT": 20,
            "TEXCOORD_0": 21,
            "TEXCOORD_1": 22,
            "TEXCOORD_2": 23,
            "TEXCOORD_3": 24,
            "TEXCOORD_4": 25
          },
          "indices": 26,
          "material": 1,
          "mode": 4
        }
      ]
    }
  ],
  "nodes": [
    {
      "children": [
        1
      ],
      "matrix": [
        1.0,
        0.0,
        0.0,
        0.0,
        0.0,
        2.220446049250313e-16,
        -1.0,
        0.0,
        0.0,
        1.0,
        2.220446049250313e-16,
        0.0,
        0.0,
        0.0,
        0.0,
        1.0
      ],
      "name": "Sketchfab_model"
    },
    {
      "children": [
        2
      ],
      "name": "root"
    },
    {
      "children": [
        3
      ],
      "matrix": [
        1.0,
        0.0,
        0.0,
        0.0,
        0.0,
        2.220446049250313e-16,
        1.0,
        0.0,
        0.0,
        -1.0,
        2.220446049250313e-16,
        0.0,
        0.0,
        0.0,
        0.0,
        1.0
      ],
      "name": "GLTF_SceneRootNode"
    },
    {
      "children": [
        4,
        7,
        10
      ],
      "matrix": [
        1856.2418212890625,
        0.0,
        0.0,
        0.0,
        0.0,
        1856.2418212890625,
        0.0,
        0.0,
        0.0,
        0.0,
        1856.2418212890625,
        0.0,
        1071.6243896484375,
        333.9432373046875,
        117.5068359375,
        1.0
      ],
      "name": "root_0"
    },
    {
      "children": [
        5
      ],
      "name": "Group1_1"
    },
    {
      "children": [
        6
      ],
      "name": "Group1_2"
    },
    {
      "mesh": 0,
      "name": "Object_6"
    },
    {
      "children": [
        8
      ],
      "name": "Group002_3"
    },
    {
      "children": [
        9
      ],
      "name": "Group002_4"
    },
    {
      "mesh": 1,
      "name": "Object_9"
    },
    {
      "children": [
        11
      ],
      "name": "Obj3d66_1018251_225_834_5"
    },
    {
      "children": [
        12
      ],
      "name": "Obj3d66_1018251_225_834_6"
    },
    {
      "mesh": 2,
      "name": "Object_12"
    }
  ],
  "samplers": [
    {
      "magFilter": 9729,
      "minFilter": 9987,
      "wrapS": 10497,
      "wrapT": 10497
    }
  ],
  "scene": 0,
  "scenes": [
    {
      "name": "Sketchfab_Scene",
      "nodes": [
        0
      ]
    }
  ],
  "textures": [
    {
      "sampler": 0,
      "source": 0
    },
    {
      "sampler": 0,
      "source": 1
    },
    {
      "sampler": 0,
      "source": 2
    },
    {
      "sampler": 0,
      "source": 3
    },
    {
      "sampler": 0,
      "source": 4
    },
    {
      "sampler": 0,
      "source": 5
    }
  ]
}
