{
  "accessors": [
    {
      "bufferView": 2,
      "componentType": 5126,
      "count": 65532,
      "max": [
        0.8742709755897522,
        0.2464703470468521,
        0.2595228850841522
      ],
      "min": [
        0.3546179234981537,
        -0.24647031724452972,
        -0.6750087738037109
      ],
      "type": "VEC3"
    },
    {
      "bufferView": 2,
      "byteOffset": 786384,
      "componentType": 5126,
      "count": 65532,
      "max": [
        1.0,
        1.0,
        0.9999998807907104
      ],
      "min": [
        -1.0,
        -1.0,
        -1.0
      ],
      "type": "VEC3"
    },
    {
      "bufferView": 1,
      "componentType": 5126,
      "count": 65532,
      "max": [
        0.9975171685218811,
        0.996380627155304
      ],
      "min": [
        0.0,
        0.0
      ],
      "type": "VEC2"
    },
    {
      "bufferView": 0,
      "componentType": 5125,
      "count": 318870,
      "type": "SCALAR"
    },
    {
      "bufferView": 2,
      "byteOffset": 1572768,
      "componentType": 5126,
      "count": 65532,
      "max": [
        0.8089913129806519,
        0.24647027254104614,
        0.2595228850841522
      ],
      "min": [
        -0.874271035194397,
        -0.2464704066514969,
        -0.6750087738037109
      ],
      "type": "VEC3"
    },
    {
      "bufferView": 2,
      "byteOffset": 2359152,
      "componentType": 5126,
      "count": 65532,
      "max": [
        0.9999998807907104,
        1.0,
        1.0
      ],
      "min": [
        -1.0,
        -1.0,
        -1.0
      ],
      "type": "VEC3"
    },
    {
      "bufferView": 1,
      "byteOffset": 524256,
      "componentType": 5126,
      "count": 65532,
      "max": [
        0.9992184638977051,
        0.9989652633666992
      ],
      "min": [
        0.0,
        0.0
      ],
      "type": "VEC2"
    },
    {
      "bufferView": 0,
      "byteOffset": 1275480,
      "componentType": 5125,
      "count": 318177,
      "type": "SCALAR"
    },
    {
      "bufferView": 2,
      "byteOffset": 3145536,
      "componentType": 5126,
      "count": 65532,
      "max": [
        0.24228179454803467,
        0.8727325201034546,
        0.247853621840477
      ],
      "min": [
        -0.7856093049049377,
        -0.8062036633491516,
        -0.6744825839996338
      ],
      "type": "VEC3"
    },
    {
      "bufferView": 2,
      "byteOffset": 3931920,
      "componentType": 5126,
      "count": 65532,
      "max": [
        1.0,
        1.0,
        1.0
      ],
      "min": [
        -1.0,
        -1.0,
        -0.999997615814209
      ],
      "type": "VEC3"
    },
    {
      "bufferView": 1,
      "byteOffset": 1048512,
      "componentType": 5126,
      "count": 65532,
      "max": [
        0.9999586343765259,
        0.9963806867599487
      ],
      "min": [
        0.019315160810947418,
        0.0010507148690521717
      ],
      "type": "VEC2"
    },
    {
      "bufferView": 0,
      "byteOffset": 2548188,
      "componentType": 5125,
      "count": 318444,
      "type": "SCALAR"
    },
    {
      "bufferView": 2,
      "byteOffset": 4718304,
      "componentType": 5126,
      "count": 65532,
      "max": [
        0.5141264200210571,
        0.874271035194397,
        0.2595229148864746
      ],
      "min": [
        -0.5141264200210571,
        -0.8742709755897522,
        -0.6750086545944214
      ],
      "type": "VEC3"
    },
    {
      "bufferView": 2,
      "byteOffset": 5504688,
      "componentType": 5126,
      "count": 65532,
      "max": [
        1.0,
        1.0,
        1.0
      ],
      "min": [
        -1.0,
        -1.0,
        -1.0
      ],
      "type": "VEC3"
    },
    {
      "bufferView": 1,
      "byteOffset": 1572768,
      "componentType": 5126,
      "count": 65532,
      "max": [
        0.9991105794906616,
        0.996380627155304
      ],
      "min": [
        0.0,
        0.0
      ],
      "type": "VEC2"
    },
    {
      "bufferView": 0,
      "byteOffset": 3821964,
      "componentType": 5125,
      "count": 324939,
      "type": "SCALAR"
    },
    {
      "bufferView": 2,
      "byteOffset": 6291072,
      "componentType": 5126,
      "count": 34442,
      "max": [
        0.11734925955533981,
        0.24228179454803467,
        0.23979109525680542
      ],
      "min": [
        -0.8089912533760071,
        -0.8689906597137451,
        -0.23075446486473083
      ],
      "type": "VEC3"
    },
    {
      "bufferView": 2,
      "byteOffset": 6704376,
      "componentType": 5126,
      "count": 34442,
      "max": [
        1.0,
        1.0,
        1.0
      ],
      "min": [
        -0.999998927116394,
        -1.0,
        -0.9974024295806885
      ],
      "type": "VEC3"
    },
    {
      "bufferView": 1,
      "byteOffset": 2097024,
      "componentType": 5126,
      "count": 34442,
      "max": [
        0.9999645352363586,
        0.95096355676651
      ],
      "min": [
        0.008476327173411846,
        0.0016989423893392086
      ],
      "type": "VEC2"
    },
    {
      "bufferView": 0,
      "byteOffset": 5121720,
      "componentType": 5125,
      "count": 164178,
      "type": "SCALAR"
    },
    {
      "bufferView": 2,
      "byteOffset": 7117680,
      "componentType": 5126,
      "count": 23340,
      "max": [
        0.8070336580276489,
        0.8070336580276489,
        -0.03506748750805855
      ],
      "min": [
        -0.8070336580276489,
        -0.8070336580276489,
        -0.23128169775009155
      ],
      "type": "VEC3"
    },
    {
      "bufferView": 2,
      "byteOffset": 7397760,
      "componentType": 5126,
      "count": 23340,
      "max": [
        1.0,
        1.0,
        1.0
      ],
      "min": [
        -1.0,
        -1.0,
        -1.0
      ],
      "type": "VEC3"
    },
    {
      "bufferView": 1,
      "byteOffset": 2372560,
      "componentType": 5126,
      "count": 23340,
      "max": [
        0.9948533177375793,
        0.9720086455345154
      ],
      "min": [
        0.0,
        0.0
      ],
      "type": "VEC2"
    },
    {
      "bufferView": 0,
      "byteOffset": 5778432,
      "componentType": 5125,
      "count": 118272,
      "type": "SCALAR"
    },
    {
      "bufferView": 2,
      "byteOffset": 7677840,
      "componentType": 5126,
      "count": 3132,
      "max": [
        0.5333607196807861,
        0.5333607792854309,
        0.026228170841932297
      ],
      "min": [
        -0.5333607196807861,
        -0.5333607792854309,
        1.1563489721311271e-08
      ],
      "type": "VEC3"
    },
    {
      "bufferView": 2,
      "byteOffset": 7715424,
      "componentType": 5126,
      "count": 3132,
      "max": [
        0.9999555349349976,
        0.9999555349349976,
        1.0
      ],
      "min": [
        -0.9999555349349976,
        -0.9999558925628662,
        -0.9991251230239868
      ],
      "type": "VEC3"
    },
    {
      "bufferView": 1,
      "byteOffset": 2559280,
      "componentType": 5126,
      "count": 3132,
      "max": [
        0.9196034073829651,
        0.589991569519043
      ],
      "min": [
        0.004679595585912466,
        0.0027817292138934135
      ],
      "type": "VEC2"
    },
    {
      "bufferView": 1,
      "byteOffset": 2584336,
      "componentType": 5126,
      "count": 3132,
      "max": [
        0.9196034073829651,
        0.589991569519043
      ],
      "min": [
        0.004679595585912466,
        0.0027817292138934135
      ],
      "type": "VEC2"
    },
    {
      "bufferView": 0,
      "byteOffset": 6251520,
      "componentType": 5125,
      "count": 15360,
      "type": "SCALAR"
    },
    {
      "bufferView": 2,
      "byteOffset": 7753008,
      "componentType": 5126,
      "count": 21464,
      "max": [
        0.2669658362865448,
        0.2728496193885803,
        -0.03506752848625183
      ],
      "min": [
        -0.2669658362865448,
        -0.2728496193885803,
        -0.6745898127555847
      ],
      "type": "VEC3"
    },
    {
      "bufferView": 2,
      "byteOffset": 8010576,
      "componentType": 5126,
      "count": 21464,
      "max": [
        1.0,
        1.0,
        1.0
      ],
      "min": [
        -1.0,
        -1.0,
        -1.0
      ],
      "type": "VEC3"
    },
    {
      "bufferView": 1,
      "byteOffset": 2609392,
      "componentType": 5126,
      "count": 21464,
      "max": [
        0.9190332889556885,
        0.8370987772941589
      ],
      "min": [
        0.2216523140668869,
        0.27009424567222595
      ],
      "type": "VEC2"
    },
    {
      "bufferView": 0,
      "byteOffset": 6312960,
      "componentType": 5125,
      "count": 104517,
      "type": "SCALAR"
    }
  ],
  "asset": {
    "extras": {
      "author": "martin_dalm (https://sketchfab.com/martin_dalm)",
      "license": "CC-BY-4.0 (http://creativecommons.org/licenses/by/4.0/)",
      "source": "https://sketchfab.com/3d-models/coffeeshop-furniture-set-3f78974efee9414cb8017cef472508f4",
      "title": "Coffeeshop Furniture Set"
    },
    "generator": "Sketchfab-12.68.0",
    "version": "2.0"
  },
  "bufferViews": [
    {
      "buffer": 0,
      "byteLength": 6731028,
      "name": "floatBufferViews",
      "target": 34963
    },
    {
      "buffer": 0,
      "byteLength": 2781104,
      "byteOffset": 6731028,
      "byteStride": 8,
      "name": "floatBufferViews",
      "target": 34962
    },
    {
      "buffer": 0,
      "byteLength": 8268144,
      "byteOffset": 9512132,
      "byteStride": 12,
      "name": "floatBufferViews",
      "target": 34962
    }
  ],
  "buffers": [
    {
      "byteLength": 17780276,
      "uri": "scene.bin"
    }
  ],
  "extensionsRequired": [
    "KHR_materials_pbrSpecularGlossiness"
  ],
  "extensionsUsed": [
    "KHR_materials_pbrSpecularGlossiness"
  ],
  "images": [
    {
      "uri": "textures/wood_diffuse.png"
    },
    {
      "uri": "textures/wood_specularGlossiness.png"
    }
  ],
  "materials": [
    {
      "doubleSided": true,
      "extensions": {
        "KHR_materials_pbrSpecularGlossiness": {
          "diffuseFactor": [
            1.0,
            1.0,
            1.0,
            1.0
          ],
          "diffuseTexture": {
            "index": 0
          },
          "glossinessFactor": 1.0,
          "specularFactor": [
            0.03902695934224573,
            0.03902695934224573,
            0.03902695934224573
          ],
          "specularGlossinessTexture": {
            "index": 1
          }
        }
      },
      "name": "wood"
    },
    {
      "doubleSided": true,
      "extensions": {
        "KHR_materials_pbrSpecularGlossiness": {
          "diffuseFactor": [
            1.0,
            1.0,
            1.0,
            1.0
          ],
          "diffuseTexture": {
            "index": 0
          },
          "glossinessFactor": 0.0565685424949238,
          "specularFactor": [
            0.0,
            0.0,
            0.0
          ]
        }
      },
      "name": "chair_underneath"
    },
    {
      "doubleSided": true,
      "extensions": {
        "KHR_materials_pbrSpecularGlossiness": {
          "diffuseFactor": [
            1.0,
            1.0,
            1.0,
            1.0
          ],
          "diffuseTexture": {
            "index": 0
          },
          "glossinessFactor": 0.21563142575092198,
          "specularFactor": [
            0.01418223884535132,
            0.01418223884535132,
            0.01418223884535132
          ]
        }
      },
      "name": "marble_top"
    },
    {
      "doubleSided": true,
      "extensions": {
        "KHR_materials_pbrSpecularGlossiness": {
          "diffuseFactor": [
            1.0,
            1.0,
            1.0,
            1.0
          ],
          "diffuseTexture": {
            "index": 0
          },
          "glossinessFactor": 0.6442028543223506,
          "specularFactor": [
            0.001759878596904115,
            0.001759878596904115,
            0.001759878596904115
          ]
        }
      },
      "name": "table_stand"
    }
  ],
  "meshes": [
    {
      "name": "table_wood_0",
      "primitives": [
        {
          "attributes": {
            "NORMAL": 1,
            "POSITION": 0,
            "TEXCOORD_0": 2
          },
          "indices": 3,
          "material": 0,
          "mode": 4
        }
      ]
    },
    {
      "name": "table_wood_0",
      "primitives": [
        {
          "attributes": {
            "NORMAL": 5,
            "POSITION": 4,
            "TEXCOORD_0": 6
          },
          "indices": 7,
          "material": 0,
          "mode": 4
        }
      ]
    },
    {
      "name": "table_wood_0",
      "primitives": [
        {
          "attributes": {
            "NORMAL": 9,
            "POSITION": 8,
            "TEXCOORD_0": 10
          },
          "indices": 11,
          "material": 0,
          "mode": 4
        }
      ]
    },
    {
      "name": "table_wood_0",
      "primitives": [
        {
          "attributes": {
            "NORMAL": 13,
            "POSITION": 12,
            "TEXCOORD_0": 14
          },
          "indices": 15,
          "material": 0,
          "mode": 4
        }
      ]
    },
    {
      "name": "table_wood_0",
      "primitives": [
        {
          "attributes": {
            "NORMAL": 17,
            "POSITION": 16,
            "TEXCOORD_0": 18
          },
          "indices": 19,
          "material": 0,
          "mode": 4
        }
      ]
    },
    {
      "name": "table_chair_underneath_0",
      "primitives": [
        {
          "attributes": {
            "NORMAL": 21,
            "POSITION": 20,
            "TEXCOORD_0": 22
          },
          "indices": 23,
          "material": 1,
          "mode": 4
        }
      ]
    },
    {
      "name": "table_marble_top_0",
      "primitives": [
        {
          "attributes": {
            "NORMAL": 25,
            "POSITION": 24,
            "TEXCOORD_0": 26,
            "TEXCOORD_1": 27
          },
          "indices": 28,
          "material": 2,
          "mode": 4
        }
      ]
    },
    {
      "name": "table_table_stand_0",
      "primitives": [
        {
          "attributes": {
            "NORMAL": 30,
            "POSITION": 29,
            "TEXCOORD_0": 31
          },
          "indices": 32,
          "material": 3,
          "mode": 4
        }
      ]
    }
  ],
  "nodes": [
    {
      "children": [
        1
      ],
      "matrix": [
        1.0,
        0.0,
        0.0,
        0.0,
        0.0,
        2.220446049250313e-16,
        -1.0,
        0.0,
        0.0,
        1.0,
        2.220446049250313e-16,
        0.0,
        0.0,
        0.0,
        0.0,
        1.0
      ],
      "name": "Sketchfab_model"
    },
    {
      "children": [
        2
      ],
      "matrix": [
        1.0,
        0.0,
        0.0,
        0.0,
        0.0,
        0.0,
        1.0,
        0.0,
        0.0,
        -1.0,
        0.0,
        0.0,
        0.0,
        0.0,
        0.0,
        1.0
      ],
      "name": "0bd42b4753354c488748ba2a2e31efca.fbx"
    },
    {
      "children": [
        3
      ],
      "name": "RootNode"
    },
    {
      "children": [
        4,
        5,
        6,
        7,
        8,
        9,
        10,
        11
      ],
      "matrix": [
        100.0,
        0.0,
        0.0,
        0.0,
        0.0,
        -1.629206793918314e-05,
        -99.99999999999868,
        0.0,
        0.0,
        99.99999999999868,
        -1.629206793918314e-05,
        0.0,
        0.0,
        67.48884582519531,
        0.0,
        1.0
      ],
      "name": "table"
    },
    {
      "mesh": 0,
      "name": "table_wood_0"
    },
    {
      "mesh": 1,
      "name": "table_wood_0"
    },
    {
      "mesh": 2,
      "name": "table_wood_0"
    },
    {
      "mesh": 3,
      "name": "table_wood_0"
    },
    {
      "mesh": 4,
      "name": "table_wood_0"
    },
    {
      "mesh": 5,
      "name": "table_chair_underneath_0"
    },
    {
      "mesh": 6,
      "name": "table_marble_top_0"
    },
    {
      "mesh": 7,
      "name": "table_table_stand_0"
    }
  ],
  "samplers": [
    {
      "magFilter": 9729,
      "minFilter": 9987,
      "wrapS": 10497,
      "wrapT": 10497
    }
  ],
  "scene": 0,
  "scenes": [
    {
      "name": "Sketchfab_Scene",
      "nodes": [
        0
      ]
    }
  ],
  "textures": [
    {
      "sampler": 0,
      "source": 0
    },
    {
      "sampler": 0,
      "source": 1
    }
  ]
}
