{
  "accessors": [
    {
      "bufferView": 2,
      "componentType": 5126,
      "count": 288,
      "max": [
        0.5697739720344543,
        0.7557799816131592,
        0.07727000117301941
      ],
      "min": [
        -0.7096250057220459,
        -0.7557799816131592,
        -0.5002229809761047
      ],
      "type": "VEC3"
    },
    {
      "bufferView": 2,
      "byteOffset": 3456,
      "componentType": 5126,
      "count": 288,
      "max": [
        0.9988722205162048,
        0.9477158784866333,
        0.9448376297950745
      ],
      "min": [
        -0.9988722205162048,
        -0.9477157592773438,
        -0.9427458643913269
      ],
      "type": "VEC3"
    },
    {
      "bufferView": 3,
      "componentType": 5126,
      "count": 288,
      "max": [
        0.994970440864563,
        0.9658722877502441,
        0.9791745543479919,
        1.0
      ],
      "min": [
        -0.9949703216552734,
        -0.9554126262664795,
        -0.9969913959503174,
        -1.0
      ],
      "type": "VEC4"
    },
    {
      "bufferView": 1,
      "componentType": 5126,
      "count": 288,
      "max": [
        1.0,
        0.99058997631073
      ],
      "min": [
        0.07956100255250931,
        0.0
      ],
      "type": "VEC2"
    },
    {
      "bufferView": 0,
      "componentType": 5125,
      "count": 720,
      "type": "SCALAR"
    },
    {
      "bufferView": 2,
      "byteOffset": 6912,
      "componentType": 5126,
      "count": 1177,
      "max": [
        0.6834830045700073,
        0.6650980114936829,
        0.29696398973464966
      ],
      "min": [
        -0.7783560156822205,
        -0.6650980114936829,
        0.0961500033736229
      ],
      "type": "VEC3"
    },
    {
      "bufferView": 2,
      "byteOffset": 21036,
      "componentType": 5126,
      "count": 1177,
      "max": [
        1.0,
        0.9999997615814209,
        1.0
      ],
      "min": [
        -1.0,
        -0.9999997615814209,
        -1.0
      ],
      "type": "VEC3"
    },
    {
      "bufferView": 3,
      "byteOffset": 4608,
      "componentType": 5126,
      "count": 1177,
      "max": [
        0.785986602306366,
        0.9999198913574219,
        0.9999987483024597,
        1.0
      ],
      "min": [
        -0.7855927348136902,
        -0.999906063079834,
        -0.9999929070472717,
        1.0
      ],
      "type": "VEC4"
    },
    {
      "bufferView": 1,
      "byteOffset": 2304,
      "componentType": 5126,
      "count": 1177,
      "max": [
        0.9589999914169312,
        0.9384559988975525
      ],
      "min": [
        0.0,
        0.2968449890613556
      ],
      "type": "VEC2"
    },
    {
      "bufferView": 0,
      "byteOffset": 2880,
      "componentType": 5125,
      "count": 6144,
      "type": "SCALAR"
    },
    {
      "bufferView": 2,
      "byteOffset": 35160,
      "componentType": 5126,
      "count": 5143,
      "max": [
        0.8460440039634705,
        0.8458889722824097,
        0.9307479858398438
      ],
      "min": [
        -0.7420240044593811,
        -0.8412010073661804,
        0.12251699715852737
      ],
      "type": "VEC3"
    },
    {
      "bufferView": 2,
      "byteOffset": 96876,
      "componentType": 5126,
      "count": 5143,
      "max": [
        0.9999996423721313,
        0.9999998807907104,
        0.9976822137832642
      ],
      "min": [
        -0.9999996423721313,
        -0.9999995827674866,
        -0.9998798966407776
      ],
      "type": "VEC3"
    },
    {
      "bufferView": 3,
      "byteOffset": 23440,
      "componentType": 5126,
      "count": 5143,
      "max": [
        0.9999998807907104,
        0.9999231100082397,
        0.9851676821708679,
        1.0
      ],
      "min": [
        -0.9999998807907104,
        -0.9999966621398926,
        -0.9806808233261108,
        1.0
      ],
      "type": "VEC4"
    },
    {
      "bufferView": 1,
      "byteOffset": 11720,
      "componentType": 5126,
      "count": 5143,
      "max": [
        0.9984260201454163,
        0.9973090291023254
      ],
      "min": [
        0.0,
        0.0
      ],
      "type": "VEC2"
    },
    {
      "bufferView": 0,
      "byteOffset": 27456,
      "componentType": 5125,
      "count": 21984,
      "type": "SCALAR"
    },
    {
      "bufferView": 2,
      "byteOffset": 158592,
      "componentType": 5126,
      "count": 1661,
      "max": [
        0.8958340287208557,
        0.8958340287208557,
        0.8626199960708618
      ],
      "min": [
        -0.7807149887084961,
        -0.8958340287208557,
        0.0009609999833628535
      ],
      "type": "VEC3"
    },
    {
      "bufferView": 2,
      "byteOffset": 178524,
      "componentType": 5126,
      "count": 1661,
      "max": [
        1.0,
        0.9999998807907104,
        1.0
      ],
      "min": [
        -1.0,
        -0.9999998807907104,
        -1.0
      ],
      "type": "VEC3"
    },
    {
      "bufferView": 3,
      "byteOffset": 105728,
      "componentType": 5126,
      "count": 1661,
      "max": [
        0.9990876913070679,
        0.9993381500244141,
        0.9997667670249939,
        1.0
      ],
      "min": [
        -0.9999996423721313,
        -0.9994652271270752,
        -0.9999983906745911,
        1.0
      ],
      "type": "VEC4"
    },
    {
      "bufferView": 1,
      "byteOffset": 52864,
      "componentType": 5126,
      "count": 1661,
      "max": [
        0.8959980010986328,
        0.9671580195426941
      ],
      "min": [
        0.0,
        0.0
      ],
      "type": "VEC2"
    },
    {
      "bufferView": 0,
      "byteOffset": 115392,
      "componentType": 5125,
      "count": 8160,
      "type": "SCALAR"
    }
  ],
  "asset": {
    "extras": {
      "author": "mervemacit (https://sketchfab.com/mervemacit)",
      "license": "CC-BY-4.0 (http://creativecommons.org/licenses/by/4.0/)",
      "source": "https://sketchfab.com/3d-models/sofa-3af6878f0b1f4ecb99936965c0d1a3e8",
      "title": "Sofa"
    },
    "generator": "Sketchfab-14.64.0",
    "version": "2.0"
  },
  "bufferViews": [
    {
      "buffer": 0,
      "byteLength": 148032,
      "name": "floatBufferViews",
      "target": 34963
    },
    {
      "buffer": 0,
      "byteLength": 66152,
      "byteOffset": 148032,
      "byteStride": 8,
      "name": "floatBufferViews",
      "target": 34962
    },
    {
      "buffer": 0,
      "byteLength": 198456,
      "byteOffset": 214184,
      "byteStride": 12,
      "name": "floatBufferViews",
      "target": 34962
    },
    {
      "buffer": 0,
      "byteLength": 132304,
      "byteOffset": 412640,
      "byteStride": 16,
      "name": "floatBufferViews",
      "target": 34962
    }
  ],
  "buffers": [
    {
      "byteLength": 544944,
      "uri": "scene.bin"
    }
  ],
  "images": [
    {
      "uri": "textures/Material_baseColor.jpeg"
    },
    {
      "uri": "textures/Material_metallicRoughness.png"
    },
    {
      "uri": "textures/Material_normal.png"
    }
  ],
  "materials": [
    {
      "doubleSided": true,
      "name": "Material",
      "normalTexture": {
        "index": 2
      },
      "occlusionTexture": {
        "index": 1
      },
      "pbrMetallicRoughness": {
        "baseColorTexture": {
          "index": 0
        },
        "metallicRoughnessTexture": {
          "index": 1
        }
      }
    }
  ],
  "meshes": [
    {
      "name": "defaultMaterial",
      "primitives": [
        {
          "attributes": {
            "NORMAL": 1,
            "POSITION": 0,
            "TANGENT": 2,
            "TEXCOORD_0": 3
          },
          "indices": 4,
          "material": 0,
          "mode": 4
        }
      ]
    },
    {
      "name": "defaultMaterial",
      "primitives": [
        {
          "attributes": {
            "NORMAL": 6,
            "POSITION": 5,
            "TANGENT": 7,
            "TEXCOORD_0": 8
          },
          "indices": 9,
          "material": 0,
          "mode": 4
        }
      ]
    },
    {
      "name": "defaultMaterial",
      "primitives": [
        {
          "attributes": {
            "NORMAL": 11,
            "POSITION": 10,
            "TANGENT": 12,
            "TEXCOORD_0": 13
          },
          "indices": 14,
          "material": 0,
          "mode": 4
        }
      ]
    },
    {
      "name": "defaultMaterial",
      "primitives": [
        {
          "attributes": {
            "NORMAL": 16,
            "POSITION": 15,
            "TANGENT": 17,
            "TEXCOORD_0": 18
          },
          "indices": 19,
          "material": 0,
          "mode": 4
        }
      ]
    }
  ],
  "nodes": [
    {
      "children": [
        1
      ],
      "matrix": [
        1.0,
        0.0,
        0.0,
        0.0,
        0.0,
        2.220446049250313e-16,
        -1.0,
        0.0,
        0.0,
        1.0,
        2.220446049250313e-16,
        0.0,
        0.0,
        0.0,
        0.0,
        1.0
      ],
      "name": "Sketchfab_model"
    },
    {
      "children": [
        2,
        4,
        6,
        8
      ],
      "matrix": [
        1.0,
        0.0,
        0.0,
        0.0,
        0.0,
        -4.371139006309477e-08,
        0.999999999999999,
        0.0,
        0.0,
        -0.999999999999999,
        -4.371139006309477e-08,
        0.0,
        0.0,
        0.0,
        0.0,
        1.0
      ],
      "name": "Collada visual scene group"
    },
    {
      "children": [
        3
      ],
      "matrix": [
        100.0,
        0.0,
        0.0,
        0.0,
        0.0,
        -1.6e-05,
        -100.0,
        0.0,
        0.0,
        100.0,
        -1.6e-05,
        0.0,
        0.0,
        0.0,
        0.0,
        1.0
      ],
      "name": "Cylinder"
    },
    {
      "mesh": 0,
      "name": "defaultMaterial"
    },
    {
      "children": [
        5
      ],
      "matrix": [
        100.0,
        0.0,
        0.0,
        0.0,
        0.0,
        -1.6e-05,
        -100.0,
        0.0,
        0.0,
        100.0,
        -1.6e-05,
        0.0,
        0.0,
        0.0,
        0.0,
        1.0
      ],
      "name": "Cube.002"
    },
    {
      "mesh": 1,
      "name": "defaultMaterial"
    },
    {
      "children": [
        7
      ],
      "matrix": [
        100.0,
        0.0,
        0.0,
        0.0,
        0.0,
        -1.6e-05,
        -100.0,
        0.0,
        0.0,
        100.0,
        -1.6e-05,
        0.0,
        0.0,
        0.0,
        0.0,
        1.0
      ],
      "name": "Cube.001"
    },
    {
      "mesh": 2,
      "name": "defaultMaterial"
    },
    {
      "children": [
        9
      ],
      "matrix": [
        100.0,
        0.0,
        0.0,
        0.0,
        0.0,
        -1.6e-05,
        -100.0,
        0.0,
        0.0,
        100.0,
        -1.6e-05,
        0.0,
        0.0,
        0.0,
        0.0,
        1.0
      ],
      "name": "Cube"
    },
    {
      "mesh": 3,
      "name": "defaultMaterial"
    }
  ],
  "samplers": [
    {
      "magFilter": 9729,
      "minFilter": 9987,
      "wrapS": 10497,
      "wrapT": 10497
    }
  ],
  "scene": 0,
  "scenes": [
    {
      "name": "Sketchfab_Scene",
      "nodes": [
        0
      ]
    }
  ],
  "textures": [
    {
      "sampler": 0,
      "source": 0
    },
    {
      "sampler": 0,
      "source": 1
    },
    {
      "sampler": 0,
      "source": 2
    }
  ]
}
