{
  "accessors": [
    {
      "bufferView": 2,
      "componentType": 5126,
      "count": 6663,
      "max": [
        0.9999999403953552,
        0.5087719559669495,
        0.3464913070201874
      ],
      "min": [
        -0.9999999403953552,
        -0.5087720155715942,
        -0.3464913070201874
      ],
      "type": "VEC3"
    },
    {
      "bufferView": 2,
      "byteOffset": 79956,
      "componentType": 5126,
      "count": 6663,
      "max": [
        1.0,
        1.0,
        1.0
      ],
      "min": [
        -1.0,
        -1.0,
        -1.0
      ],
      "type": "VEC3"
    },
    {
      "bufferView": 3,
      "componentType": 5126,
      "count": 6663,
      "max": [
        1.0,
        1.0,
        1.0,
        1.0
      ],
      "min": [
        -1.0,
        -1.0,
        -1.0,
        -1.0
      ],
      "type": "VEC4"
    },
    {
      "bufferView": 1,
      "componentType": 5126,
      "count": 6663,
      "max": [
        0.998046875,
        0.998046875
      ],
      "min": [
        0.0036965790204703808,
        0.01542288064956665
      ],
      "type": "VEC2"
    },
    {
      "bufferView": 1,
      "byteOffset": 53304,
      "componentType": 5126,
      "count": 6663,
      "max": [
        0.998046875,
        0.998046875
      ],
      "min": [
        0.0036965790204703808,
        0.01542288064956665
      ],
      "type": "VEC2"
    },
    {
      "bufferView": 1,
      "byteOffset": 106608,
      "componentType": 5126,
      "count": 6663,
      "max": [
        0.998046875,
        0.998046875
      ],
      "min": [
        0.0036965790204703808,
        0.01542288064956665
      ],
      "type": "VEC2"
    },
    {
      "bufferView": 1,
      "byteOffset": 159912,
      "componentType": 5126,
      "count": 6663,
      "max": [
        0.998046875,
        0.998046875
      ],
      "min": [
        0.0036965790204703808,
        0.01542288064956665
      ],
      "type": "VEC2"
    },
    {
      "bufferView": 1,
      "byteOffset": 213216,
      "componentType": 5126,
      "count": 6663,
      "max": [
        0.998046875,
        0.998046875
      ],
      "min": [
        0.0036965790204703808,
        0.01542288064956665
      ],
      "type": "VEC2"
    },
    {
      "bufferView": 0,
      "componentType": 5125,
      "count": 27156,
      "type": "SCALAR"
    }
  ],
  "asset": {
    "extras": {
      "author": "maxsbond.work (https://sketchfab.com/maxsbond.work)",
      "license": "CC-BY-4.0 (http://creativecommons.org/licenses/by/4.0/)",
      "source": "https://sketchfab.com/3d-models/reclaimed-tv-stand-furniture-1fd5aaf7ede3441986d193403aa36893",
      "title": "Reclaimed TV Stand / Furniture"
    },
    "generator": "Sketchfab-12.66.0",
    "version": "2.0"
  },
  "bufferViews": [
    {
      "buffer": 0,
      "byteLength": 108624,
      "name": "floatBufferViews",
      "target": 34963
    },
    {
      "buffer": 0,
      "byteLength": 266520,
      "byteOffset": 108624,
      "byteStride": 8,
      "name": "floatBufferViews",
      "target": 34962
    },
    {
      "buffer": 0,
      "byteLength": 159912,
      "byteOffset": 375144,
      "byteStride": 12,
      "name": "floatBufferViews",
      "target": 34962
    },
    {
      "buffer": 0,
      "byteLength": 106608,
      "byteOffset": 535056,
      "byteStride": 16,
      "name": "floatBufferViews",
      "target": 34962
    }
  ],
  "buffers": [
    {
      "byteLength": 641664,
      "uri": "scene.bin"
    }
  ],
  "images": [
    {
      "uri": "textures/Base_baseColor.png"
    },
    {
      "uri": "textures/Base_metallicRoughness.png"
    },
    {
      "uri": "textures/Base_normal.png"
    }
  ],
  "materials": [
    {
      "name": "Base",
      "normalTexture": {
        "index": 2,
        "texCoord": 2
      },
      "occlusionTexture": {
        "index": 1
      },
      "pbrMetallicRoughness": {
        "baseColorTexture": {
          "index": 0
        },
        "metallicRoughnessTexture": {
          "index": 1,
          "texCoord": 1
        }
      }
    }
  ],
  "meshes": [
    {
      "name": "Object_0",
      "primitives": [
        {
          "attributes": {
            "NORMAL": 1,
            "POSITION": 0,
            "TANGENT": 2,
            "TEXCOORD_0": 3,
            "TEXCOORD_1": 4,
            "TEXCOORD_2": 5,
            "TEXCOORD_3": 6,
            "TEXCOORD_4": 7
          },
          "indices": 8,
          "material": 0,
          "mode": 4
        }
      ]
    }
  ],
  "nodes": [
    {
      "children": [
        1
      ],
      "matrix": [
        0.010576975531876087,
        0.0,
        0.0,
        0.0,
        0.0,
        2.3485603532771487e-18,
        -0.010576975531876087,
        0.0,
        0.0,
        0.010576975531876087,
        2.3485603532771487e-18,
        0.0,
        0.0,
        0.0,
        0.0,
        1.0
      ],
      "name": "Sketchfab_model"
    },
    {
      "children": [
        2
      ],
      "name": "root"
    },
    {
      "children": [
        3
      ],
      "matrix": [
        1.0,
        0.0,
        0.0,
        0.0,
        0.0,
        2.220446049250313e-16,
        1.0,
        0.0,
        0.0,
        -1.0,
        2.220446049250313e-16,
        0.0,
        0.0,
        0.0,
        0.0,
        1.0
      ],
      "name": "GLTF_SceneRootNode"
    },
    {
      "children": [
        4
      ],
      "matrix": [
        72.39000701904297,
        0.0,
        0.0,
        0.0,
        0.0,
        72.39000701904297,
        0.0,
        0.0,
        0.0,
        0.0,
        72.39000701904297,
        0.0,
        0.0,
        36.82999801635742,
        1.2921104431152344,
        1.0
      ],
      "name": "Stand_01.obj_0"
    },
    {
      "children": [
        5
      ],
      "name": "g Stand_01:AssemblyMT_CB2_Table_suspendFBXASC032mediaFBXASC032console001_1"
    },
    {
      "children": [
        6
      ],
      "name": "Stand_01:AssemblyMT_CB2_Table_suspendFBXASC032mediaFBXASC032console001_2"
    },
    {
      "mesh": 0,
      "name": "Object_6"
    }
  ],
  "samplers": [
    {
      "magFilter": 9729,
      "minFilter": 9987,
      "wrapS": 10497,
      "wrapT": 10497
    }
  ],
  "scene": 0,
  "scenes": [
    {
      "name": "Sketchfab_Scene",
      "nodes": [
        0
      ]
    }
  ],
  "textures": [
    {
      "sampler": 0,
      "source": 0
    },
    {
      "sampler": 0,
      "source": 1
    },
    {
      "sampler": 0,
      "source": 2
    }
  ]
}
